# xmcd
#
# Track frame offsets:
#	150
#	17922
#	35845
#	49542
#	63179
#	83542
#	98334
#	111657
#	125682
#	139453
#	153324
#	167738
#	187028
#	201426
#	220577
#	235303
#	250481
#	265466
#	278322
#	295393
#
# Disc length: 4132 seconds
#
# Revision: 0
# Processed by: cddbd v1.5.2PL0 Copyright (c) Steve Scherf et al.
# Submitted via: EasyCDDAExtractor 16.0.6.1
#
DISCID=2b102214
DTITLE=Συλλογικός δίσκος - Τα ρεμπέτικα Β 1922-1937 06 Β
DYEAR=2010
DGENRE=Ρεμπέτικη
TTITLE0=Δούσας Κώστας - Μανωλάκης ο χασικλής [ζεϊμπ., Ι. Δραγάτσης, Σικάγο 4.1
TTITLE0=932]
TTITLE1=Κ. Κωστής - Τούτο το καλοκαιράκι [Αθήνα 21.5.1931]
TTITLE2=Εσκενάζυ Ρόζα - Η κούλα [Κ. Καρίπης, Αθήνα 28.1.1932]
TTITLE3=Διαμαντίδης Αντώνης ή Νταλγκάς - Μέσα στου Μάνθου τον τεκέ [Κ. Τζόβενο
TTITLE3=ς, Αθήνα 24.11.1933]
TTITLE4=Δώρου Λίνα-Δημητριάδης Τ.-Σβορώνος Π.-Σαμουράκης - Έρε ψεύτη ντουνιά [
TTITLE4=κωμ. σκετς, Ν. Υόρκη 24.12.1928]
TTITLE5=Βιδάλης Γιώργος - Ο μανάβης [Ι. Οικονομάκος-Τ. Μωραϊτίνης, Αθήνα 1928]
TTITLE6=Καρίπης Κώστας - Μπουρνοβαλιό μανές [Αθήνα 1928]
TTITLE7=Εσκενάζυ Ρόζα - Στης Αθήνας τις ομορφιές [Δημ. Πολίτης, Αθήνα 12.1933]
TTITLE8=Διαμαντίδης Αντώνης ή Νταλγκάς - Κακούργα γειτόνισσα [Α. Διαμαντίδης, 
TTITLE8=Αθήνα 1931]
TTITLE9=Ατραΐδης Δημήτρης - Ο γλεντζές [καρσιλαμάς, Ν. Στεφανίδης, Αθήνα 1932]
TTITLE10=Κουρμέντελος Θάνος - Τσακπίνα [λαϊκό άσμα, Κ. Σκαρβέλης, Αθήνα 1930]
TTITLE11=Κατσαρός Γιώργος - Παίζω πόκα, παίζω πινόκλι [Δημ. Ζάττας, Σικάγο 5.1
TTITLE11=1.1929]
TTITLE12=Μαρίκα η Πολίτισσα - Μαστούρια [απτάλικος, Ι. Μοντανάρης, Αθήνα 10.19
TTITLE12=32]
TTITLE13=Ιωαννίδης Γιαννάκης-Κουρούκλη Λίζα - Το μορτάκι [Θάνος Ζάχος, Ν. Υόρκ
TTITLE13=η 9.1928]
TTITLE14=Κασιμάτης Ζαχαρίας - Ειρηνάκι [απτάλικος, Ι. Δραγάτσης, Αθήνα 1932]
TTITLE15=Διαμαντίδης Αντώνης ή Νταλγκάς - Ομολογίες [Αθήνα 22.6.1928]
TTITLE16=Εσκενάζυ Ρόζα - Του ψαρά ο γιος [σέρβικο, Δ. Γεωργιάδης (Ρ. Εσκενάζυ)
TTITLE16=, Αθήνα 1932]
TTITLE17=Ατραΐδης Δημήτρης - Κατηφές [δημώδες, Αθήνα 1929]
TTITLE18=Ιωαννίδης Γιαννάκης - Ο Πινόκλης [ζεϊμπ., Δημοσθ. Ζάττας, Ν. Υόρκη 1.
TTITLE18=1928]
TTITLE19=Διαμαντίδης Αντώνης ή Νταλγκάς - Αθάνατο Ρωμέϊκο [Ιερόθ. Σχίζας, Αθήν
TTITLE19=α 20.5.1931]
EXTD=
EXTT0=
EXTT1=
EXTT2=
EXTT3=
EXTT4=
EXTT5=
EXTT6=
EXTT7=
EXTT8=
EXTT9=
EXTT10=
EXTT11=
EXTT12=
EXTT13=
EXTT14=
EXTT15=
EXTT16=
EXTT17=
EXTT18=
EXTT19=
PLAYORDER=
